<svg t="1593657352080" class="icon" viewBox="0 0 1024 1024" version="1.1" xmlns="http://www.w3.org/2000/svg" p-id="1352" width="200" height="200"><path d="M510.2 507.49999999m-438.30000001 0a438.30000001 438.30000001 0 1 0 876.6 0 438.30000001 438.30000001 0 1 0-876.6 0Z" fill="#E83D3D" p-id="1353"></path><path d="M248.29999999 386v328.50000001l527.85000001-29.70000001V359L248.29999999 386z m115.65000001 64.35l30.6 38.7-41.84999999 2.24999999-30.59999999-38.69999999 41.84999998-2.25z m0 48.14999999l30.6 38.70000001-41.84999999 2.25000001-30.59999999-38.70000001 41.84999998-2.24999999z m13.05 146.25000001l-70.65 4.05v-24.75l41.85-2.25 34.20000001-45-76.95000001 4.50000001v-24.75000001l111.15-6.75V439.99999999l37.8-2.24999999v109.8l46.8-2.25000001v24.75000001l-70.65 4.04999999L377 644.75z m87.30000001-5.4l-30.15000001-58.94999999 42.3-1.80000001 30.60000001 58.95-42.75000002 1.8zM561.50000001 415.25l30.14999999 14.4 125.1-6.74999999v43.2l-61.65000001 30.6 46.79999999 17.54999999 18.45000002-1.34999999v25.2l-27 1.8-71.55-26.55000002-69.75 34.20000001-27.45000001 1.8v-25.2l18.00000001-0.9 45.44999999-22.05-26.54999998-10.35 15.74999999-22.94999999 44.55 16.64999998 58.05-28.8v-5.84999998l-103.94999999 5.84999998-21.15000001 33.30000001-32.4-11.7 39.14999999-62.1z m0.89999999 219.15l-38.25 1.80000001 25.65-49.05000001 37.8-2.25000001-25.2 49.50000001z m40.95-2.25v-54.9l-79.2 4.5v-25.2l79.2-4.05000002v-12.59999997l37.8-2.25000001v12.6l79.2-4.5v25.19999999l-78.75000001 4.50000001 0.45000001 55.35-38.7 1.35z m86.4-4.95l-27.9-45.90000002 38.25000001-2.24999998 27.9 46.35-38.25000001 1.8z" fill="#ffffff" p-id="1354"></path></svg>